#!OML:ASF H:\Dans Jumps\Project 1\Capture day 1\Session 1\subject.ASF
:FULLY-SPECIFIED
:DEGREES
551
root 0.468633 17.5786 10.9928 10.9856 -2.13199 -3.01201
lowerback 4.15721 0.708741 0.155164
upperback 5.65046 0.90248 1.54344
thorax 3.46847 0.420146 1.49378
lowerneck -15.4651 0.826383 -1.76109
upperneck 34.2839 1.48176 0.827163
head 14.322 0.516228 0.890371
rclavicle -7.25564e-015 4.87022e-015
rhumerus -14.6782 -4.44349 -87.3855
rradius 26.4677
rwrist 28.8978
rhand -21.8773 -27.025
rfingers 7.12502
rthumb 4.52726 -56.9566
lclavicle -7.25564e-015 4.87022e-015
lhumerus -14.084 -8.52403 90.9427
lradius 20.3167
lwrist 7.44285
lhand -27.7594 -7.80364
lfingers 7.12502
lthumb -1.15349 22.173
rfemur -21.0453 -1.50819 22.1922
rtibia 26.4037
rfoot -15.0588 0.494113
rtoes 10.7319
lfemur -18.7664 6.76414 -17.6325
ltibia 25.7085
lfoot -12.4487 9.71057
ltoes -14.0586
552
root 0.468465 17.5785 10.9898 10.9788 -2.13602 -3.01758
lowerback 4.13854 0.707345 0.165978
upperback 5.65869 0.90055 1.5409
thorax 3.48778 0.419546 1.4855
lowerneck -15.4585 0.823286 -1.76248
upperneck 34.2771 1.47327 0.838349
head 14.3174 0.514002 0.893618
rclavicle -1.00386e-014 5.96354e-015
rhumerus -14.722 -4.57749 -87.3276
rradius 26.3844
rwrist 28.9913
rhand -21.8688 -27.0276
rfingers 7.12502
rthumb 4.53543 -56.9591
lclavicle -1.00386e-014 5.96354e-015
lhumerus -14.12 -8.42213 90.9141
lradius 20.2777
lwrist 7.37072
lhand -27.7471 -7.79992
lfingers 7.12502
lthumb -1.14162 22.1768
rfemur -21.0471 -1.50637 22.199
rtibia 26.4004
rfoot -15.0544 0.495972
rtoes 10.7352
lfemur -18.7675 6.76011 -17.6255
ltibia 25.7068
lfoot -12.4374 9.71991
ltoes -14.0981
553
root 0.46836 17.5785 10.9868 10.9726 -2.14095 -3.01874
lowerback 4.12132 0.705598 0.172079
upperback 5.66467 0.898164 1.53678
thorax 3.50389 0.418598 1.47819
lowerneck -15.4497 0.821517 -1.76056
upperneck 34.2747 1.46697 0.845918
head 14.3143 0.512594 0.895198
rclavicle -1.18277e-014 -4.96962e-015
rhumerus -14.7678 -4.70067 -87.2713
rradius 26.3003
rwrist 29.0848
rhand -21.8555 -27.0317
rfingers 7.12502
rthumb 4.54834 -56.9629
lclavicle -1.18277e-014 -4.96962e-015
lhumerus -14.1615 -8.35587 90.8894
lradius 20.2521
lwrist 7.32876
lhand -27.7588 -7.81267
lfingers 7.12502
lthumb -1.15291 22.164
rfemur -21.051 -1.50773 22.2007
rtibia 26.3994
rfoot -15.0505 0.503218
rtoes 10.7544
lfemur -18.7672 6.75649 -17.6238
ltibia 25.702
lfoot -12.4183 9.72924
ltoes -14.1621
554
root 0.468302 17.5785 10.9839 10.9666 -2.14628 -3.01522
lowerback 4.10832 0.704272 0.173015
upperback 5.66723 0.896386 1.53134
thorax 3.51399 0.417821 1.47229
lowerneck -15.438 0.819649 -1.75422
upperneck 34.2742 1.46088 0.848492
head 14.3116 0.511153 0.894005
rclavicle -4.84538e-015 -3.18055e-015
rhumerus -14.8196 -4.81228 -87.2153
rradius 26.2202
rwrist 29.1764
rhand -21.8368 -27.0356
rfingers 7.12502
rthumb 4.56631 -56.9664
lclavicle -4.84538e-015 -3.18055e-015
lhumerus -14.2069 -8.32349 90.8702
lradius 20.2369
lwrist 7.31392
lhand -27.7661 -7.82713
lfingers 7.12502
lthumb -1.16004 22.1495
rfemur -21.0574 -1.51162 22.1972
rtibia 26.4016
rfoot -15.0462 0.514349
rtoes 10.7812
lfemur -18.7654 6.7536 -17.6278
ltibia 25.694
lfoot -12.398 9.73673
ltoes -14.2275
